<?xml version="1.0" encoding="UTF-8" standalone="no"?>
<svg
   width="190pt"
   height="119pt"
   viewBox="0 0 190 119"
   version="1.1"
   id="svg11"
   sodipodi:docname="logowhite.svg"
   inkscape:version="1.3.2 (1:1.3.2+202311252150+091e20ef0f)"
   xmlns:inkscape="http://www.inkscape.org/namespaces/inkscape"
   xmlns:sodipodi="http://sodipodi.sourceforge.net/DTD/sodipodi-0.dtd"
   xmlns="http://www.w3.org/2000/svg"
   xmlns:svg="http://www.w3.org/2000/svg">
  <defs
     id="defs11" />
  <sodipodi:namedview
     id="namedview11"
     pagecolor="#ffffff"
     bordercolor="#666666"
     borderopacity="1.0"
     inkscape:showpageshadow="2"
     inkscape:pageopacity="0.0"
     inkscape:pagecheckerboard="0"
     inkscape:deskcolor="#d1d1d1"
     inkscape:document-units="pt"
     inkscape:zoom="4.3815789"
     inkscape:cx="126.66667"
     inkscape:cy="79.309309"
     inkscape:window-width="1920"
     inkscape:window-height="945"
     inkscape:window-x="0"
     inkscape:window-y="0"
     inkscape:window-maximized="1"
     inkscape:current-layer="svg11" />
  <g
     id="#ffffffff">
    <path
       fill="#ffffff"
       opacity="1.00"
       d=" M 49.34 3.36 C 52.54 0.39 57.76 0.31 61.31 2.71 C 63.33 4.01 64.57 6.13 65.86 8.09 C 81.24 33.23 95.41 59.08 110.64 84.30 C 112.45 87.64 114.57 91.10 114.56 95.01 C 114.74 99.79 110.56 104.02 105.93 104.56 C 101.96 105.09 97.94 104.65 94.02 103.95 C 77.68 100.86 62.28 91.83 52.37 78.36 C 52.01 77.87 51.66 77.38 51.31 76.88 C 43.58 66.18 39.82 53.09 38.69 40.05 C 38.28 32.52 39.68 25.00 41.77 17.79 C 43.40 12.61 45.04 7.01 49.34 3.36 M 53.45 7.37 C 50.28 9.71 49.23 13.75 47.93 17.27 C 40.61 37.08 45.30 60.32 58.27 76.72 C 68.24 89.04 83.26 97.05 98.96 98.90 C 102.18 99.02 106.58 99.86 108.59 96.59 C 109.45 92.39 106.51 88.81 104.65 85.34 C 89.65 60.54 75.77 35.08 60.56 10.41 C 59.25 7.98 56.21 5.35 53.45 7.37 Z"
       id="path1" />
  </g>
  <g
     id="#080605ff"
     style="fill:#ffffff;fill-opacity:1">
    <path
       fill="#080605"
       opacity="1.00"
       d=" M 101.20 3.30 C 102.68 3.31 104.17 3.33 105.66 3.35 C 108.42 11.82 111.12 20.31 113.90 28.77 C 112.23 28.88 110.56 28.99 108.89 29.10 C 108.28 27.29 107.68 25.48 107.08 23.67 C 104.72 23.65 102.36 23.55 100.01 23.75 C 98.88 25.23 98.47 27.10 97.80 28.81 C 96.19 28.88 94.59 28.94 92.98 28.99 C 95.37 20.32 98.36 11.83 101.20 3.30 M 103.29 10.76 C 102.34 13.58 101.57 16.45 100.83 19.34 C 102.48 19.36 104.14 19.39 105.80 19.40 C 105.22 16.45 104.47 13.53 103.29 10.76 Z"
       id="path2"
       style="fill:#ffffff;fill-opacity:1" />
    <path
       fill="#080605"
       opacity="1.00"
       d=" M 121.10 3.28 C 125.98 3.33 130.85 3.33 135.73 3.28 C 135.73 4.57 135.74 5.86 135.75 7.16 C 134.12 7.24 132.48 7.30 130.85 7.37 C 130.63 13.21 130.68 19.05 130.78 24.89 C 132.44 24.98 134.11 25.08 135.78 25.17 C 135.77 26.41 135.77 27.65 135.76 28.88 C 130.78 29.10 125.79 29.11 120.81 28.86 C 120.82 27.64 120.83 26.42 120.85 25.20 C 122.49 25.08 124.13 24.95 125.77 24.83 C 125.70 19.01 125.72 13.19 125.74 7.37 C 124.09 7.31 122.44 7.25 120.79 7.16 C 120.88 5.87 120.99 4.58 121.10 3.28 Z"
       id="path3"
       style="fill:#ffffff;fill-opacity:1" />
    <path
       fill="#080605"
       opacity="1.00"
       d=" M 145.24 3.24 C 147.28 3.30 149.32 3.36 151.36 3.44 C 152.03 6.36 152.79 9.26 153.65 12.14 C 154.77 9.29 155.53 6.32 156.33 3.37 C 158.44 3.34 160.54 3.32 162.66 3.30 C 162.62 11.80 162.51 20.31 162.71 28.81 C 161.27 28.88 159.82 28.95 158.38 29.03 C 158.07 22.67 158.29 16.30 158.41 9.94 C 157.15 13.32 156.25 16.84 154.76 20.13 C 154.30 20.27 153.37 20.56 152.90 20.70 C 151.45 17.56 150.67 14.17 149.60 10.89 C 149.47 16.93 149.74 22.97 149.49 29.00 C 148.04 28.96 146.59 28.91 145.14 28.86 C 145.30 20.32 145.14 11.78 145.24 3.24 Z"
       id="path4"
       style="fill:#ffffff;fill-opacity:1" />
    <path
       fill="#080605"
       opacity="1.00"
       d=" M 173.28 15.55 C 178.14 15.70 183.01 15.70 187.87 15.54 C 187.91 16.92 187.93 18.31 187.96 19.69 C 183.05 19.64 178.14 19.65 173.23 19.67 C 173.24 18.30 173.26 16.92 173.28 15.55 Z"
       id="path5"
       style="fill:#ffffff;fill-opacity:1" />
    <path
       fill="#080605"
       opacity="1.00"
       d=" M 164.35 39.35 C 169.57 38.15 174.81 42.13 175.45 47.36 C 175.82 52.32 176.58 58.06 173.27 62.25 C 169.95 66.78 162.12 66.75 159.03 61.98 C 156.44 57.88 156.42 52.68 157.08 48.02 C 157.59 44.10 160.14 39.94 164.35 39.35 M 164.50 43.54 C 162.31 44.84 162.12 47.67 161.82 49.93 C 161.69 53.47 161.53 57.42 163.53 60.51 C 165.95 62.90 170.10 60.73 170.39 57.60 C 170.87 53.98 170.98 50.24 170.25 46.65 C 169.64 44.17 166.93 42.60 164.50 43.54 Z"
       id="path6"
       style="fill:#ffffff;fill-opacity:1" />
    <path
       fill="#080605"
       opacity="1.00"
       d=" M 107.43 39.73 C 111.82 39.60 116.41 38.93 120.65 40.38 C 125.45 42.10 127.12 48.97 123.68 52.72 C 120.95 56.07 116.28 55.69 112.42 56.15 C 112.50 59.21 112.49 62.27 112.41 65.33 C 110.75 65.25 109.10 65.17 107.44 65.06 C 107.56 56.62 107.58 48.17 107.43 39.73 M 112.43 43.66 C 112.48 46.40 112.49 49.14 112.45 51.88 C 114.42 51.77 116.43 51.84 118.35 51.35 C 120.98 50.34 121.08 46.54 119.38 44.66 C 117.39 43.13 114.75 43.71 112.43 43.66 Z"
       id="path7"
       style="fill:#ffffff;fill-opacity:1" />
    <path
       fill="#080605"
       opacity="1.00"
       d=" M 132.42 39.73 C 137.80 39.74 144.36 38.18 148.69 42.27 C 152.28 46.08 150.26 52.13 146.12 54.63 C 147.79 58.14 149.62 61.56 151.18 65.12 C 149.47 65.20 147.77 65.25 146.06 65.30 C 144.42 62.10 143.20 58.62 140.91 55.82 C 139.75 55.73 138.60 55.69 137.44 55.69 C 137.50 58.90 137.49 62.11 137.40 65.33 C 135.74 65.25 134.09 65.17 132.44 65.07 C 132.55 56.62 132.58 48.17 132.42 39.73 M 137.42 43.65 C 137.47 46.35 137.48 49.06 137.46 51.76 C 140.39 51.59 145.28 52.14 145.50 48.00 C 146.16 43.33 140.62 43.30 137.42 43.65 Z"
       id="path8"
       style="fill:#ffffff;fill-opacity:1" />
  </g>
  <g
     id="#5f56a5ff">
    <path
       fill="#5f56a5"
       opacity="1.00"
       d=" M 53.45 7.37 C 56.21 5.35 59.25 7.98 60.56 10.41 C 75.77 35.08 89.65 60.54 104.65 85.34 C 106.51 88.81 109.45 92.39 108.59 96.59 C 106.58 99.86 102.18 99.02 98.96 98.90 C 83.26 97.05 68.24 89.04 58.27 76.72 C 45.30 60.32 40.61 37.08 47.93 17.27 C 49.23 13.75 50.28 9.71 53.45 7.37 Z"
       id="path9" />
    <path
       fill="#5f56a5"
       opacity="1.00"
       d=" M 29.42 43.48 C 31.20 40.37 32.87 37.14 35.35 34.51 C 36.14 45.44 37.60 56.59 42.21 66.65 C 43.23 68.97 44.55 71.75 43.03 74.18 C 37.51 84.96 27.54 93.20 16.18 97.23 C 12.33 98.54 8.20 99.51 4.13 98.81 C 3.01 98.53 1.46 98.05 1.27 96.72 C 0.27 93.27 2.37 90.04 3.98 87.16 C 12.53 72.64 21.02 58.08 29.42 43.48 Z"
       id="path10" />
  </g>
  <g
     id="#a3d9ccff">
    <path
       fill="#a3d9cc"
       opacity="1.00"
       d=" M 51.31 76.88 C 51.66 77.38 52.01 77.87 52.37 78.36 C 51.58 82.81 53.69 87.14 56.59 90.40 C 60.60 94.90 66.69 96.20 72.29 97.53 C 67.83 98.60 63.09 99.45 59.39 102.37 C 53.99 106.22 51.61 112.76 50.28 119.00 L 50.13 119.00 C 49.45 113.60 48.07 107.90 44.05 103.96 C 40.28 100.06 34.73 99.14 29.78 97.58 C 34.35 96.25 39.27 95.21 42.89 91.88 C 47.46 88.05 48.93 82.08 51.31 76.88 Z"
       id="path11" />
  </g>
</svg>
