<svg xmlns="http://www.w3.org/2000/svg" width="220" height="40" viewBox="0 0 220 40" fill="none"><path d="M14.5699 24.6451H9.71826V29.4967H14.5699V24.6451Z" fill="#37B34A"></path><path d="M33.9913 0.357178H29.1396V5.20881H33.9913V0.357178Z" fill="#37B34A"></path><path d="M19.4215 14.9269H14.5698V19.7786H19.4215V14.9269Z" fill="#37B34A"></path><path d="M43.6944 14.9269H38.8428V19.7786H43.6944V14.9269Z" fill="#8BC53F"></path><path d="M29.1395 14.9269H24.2878V19.7786H29.1395V14.9269Z" fill="#37B34A"></path><path d="M24.273 0.357178H19.4214V5.20881H24.273V0.357178Z" fill="#37B34A"></path><path d="M29.1395 5.22369H24.2878V10.0753H29.1395V5.22369Z" fill="#8BC53F"></path><path d="M43.6944 10.0753H38.8428V14.927H43.6944V10.0753Z" fill="#00A69C"></path><path d="M4.85163 5.22369H0V10.0753H4.85163V5.22369Z" fill="#37B34A"></path><path d="M38.8428 24.6451H33.9912V29.4967H38.8428V24.6451Z" fill="#37B34A"></path><path d="M33.9913 34.3484H29.1396V39.2H33.9913V34.3484Z" fill="#8BC53F"></path><path d="M19.4215 0.357178H14.5698V5.20881H19.4215V0.357178Z" fill="white"></path><path d="M43.6944 0.357178H38.8428V5.20881H43.6944V0.357178Z" fill="white"></path><path d="M43.6944 5.22369H38.8428V10.0753H43.6944V5.22369Z" fill="#37B34A"></path><path d="M33.9913 10.0753H29.1396V14.927H33.9913V10.0753Z" fill="white"></path><path d="M33.9912 0.357178V5.22369V10.0753H38.8428V5.22369V0.357178H33.9912Z" fill="#00A69C"></path><path d="M14.5699 10.0753H9.71826V14.927H14.5699V10.0753Z" fill="#00A69C"></path><path d="M38.8428 14.9269H33.9912V19.7786H38.8428V14.9269Z" fill="#00A69C"></path><path d="M43.6944 19.7935H38.8428V24.6451H43.6944V19.7935Z" fill="white"></path><path d="M24.273 19.7935H19.4214V24.6451H24.273V19.7935Z" fill="#00A69C"></path><path d="M147.99 17.457H141.069V24.66H136.262V15.0609L139.194 5.46183L140.638 0.654846H148.406L152.782 15.0609V24.66H147.975V17.457H147.99ZM147.246 12.65L145.058 5.44695H144.001L141.784 12.65H147.26H147.246Z" fill="white"></path><path d="M59.9014 24.66V0.37207H63.2945L71.4203 15.8199L79.546 0.37207H82.8052V24.66H79.546V6.26546L72.5662 19.4512H70.1404L63.1606 6.26546V24.66H59.9014Z" fill="white"></path><path d="M99.1161 25.0023C97.7321 25.0023 96.3927 24.7642 95.1128 24.2879C93.8329 23.8117 92.6721 23.0825 91.6601 22.0853C90.6332 21.0882 89.8444 19.8232 89.2491 18.2755C88.6539 16.7277 88.3711 14.8674 88.3711 12.6946V11.9951C88.3711 9.91161 88.6687 8.12574 89.2491 6.60774C89.8444 5.10463 90.6481 3.85452 91.6601 2.87229C92.6721 1.89005 93.8329 1.16082 95.1128 0.699468C96.3927 0.238116 97.7321 0 99.1161 0C100.5 0 101.84 0.238116 103.119 0.699468C104.399 1.16082 105.56 1.89005 106.572 2.87229C107.584 3.85452 108.388 5.10463 108.983 6.60774C109.578 8.11086 109.861 9.91161 109.861 11.9951V12.6946C109.861 14.8674 109.564 16.7277 108.983 18.2755C108.388 19.8232 107.584 21.1031 106.572 22.0853C105.545 23.0825 104.399 23.8117 103.119 24.2879C101.84 24.7642 100.5 25.0023 99.1161 25.0023ZM99.1161 22.0853C100.381 22.0853 101.572 21.7728 102.673 21.1478C103.774 20.5227 104.667 19.5107 105.367 18.1267C106.051 16.7426 106.408 14.927 106.408 12.6797V11.9803C106.408 9.85209 106.066 8.12574 105.367 6.78633C104.667 5.46181 103.774 4.47957 102.673 3.85452C101.572 3.22946 100.381 2.91693 99.1161 2.91693C97.8511 2.91693 96.6903 3.22946 95.5741 3.85452C94.458 4.47957 93.565 5.46181 92.8655 6.78633C92.1661 8.11086 91.8238 9.85209 91.8238 11.9803V12.6797C91.8238 14.927 92.1661 16.7426 92.8655 18.1267C93.565 19.5107 94.458 20.5227 95.5741 21.1478C96.6903 21.7728 97.866 22.0853 99.1161 22.0853Z" fill="white"></path><path d="M184.303 25.0023C182.502 25.0023 180.82 24.5707 179.272 23.7224C177.725 22.8741 176.46 21.5347 175.507 19.7191C174.54 17.9034 174.063 15.5669 174.063 12.6946V11.9951C174.063 9.91163 174.346 8.12575 174.897 6.60775C175.448 5.10464 176.207 3.86941 177.159 2.90206C178.111 1.93471 179.198 1.20548 180.433 0.729244C181.668 0.25301 182.963 0.0148926 184.303 0.0148926C185.642 0.0148926 186.833 0.19348 187.934 0.535773C189.035 0.878066 190.002 1.38406 190.836 2.024C191.669 2.67883 192.339 3.46759 192.86 4.42006C193.381 5.37252 193.708 6.44405 193.857 7.64952H190.389C190.062 6.07199 189.377 4.89629 188.336 4.10753C187.294 3.31876 185.954 2.93183 184.303 2.93183C182.651 2.93183 182.085 3.21459 181.043 3.795C180.002 4.37541 179.153 5.32788 178.513 6.6524C177.873 7.97693 177.546 9.7628 177.546 11.9803V12.6797C177.546 14.4358 177.754 15.9241 178.156 17.1147C178.558 18.3201 179.094 19.2875 179.778 20.0167C180.448 20.7459 181.177 21.2668 181.981 21.5942C182.785 21.9216 183.558 22.0854 184.317 22.0854C186.118 22.0854 187.532 21.6389 188.559 20.7608C189.571 19.8828 190.181 18.7517 190.404 17.3677H193.872C193.678 18.7071 193.321 19.8679 192.756 20.8352C192.205 21.8026 191.506 22.6062 190.657 23.2164C189.809 23.8266 188.857 24.2879 187.77 24.5707C186.699 24.8535 185.538 25.0023 184.317 25.0023H184.303Z" fill="white"></path><path d="M208.412 25.0023C207.028 25.0023 205.688 24.7642 204.408 24.2879C203.129 23.8117 201.968 23.0825 200.956 22.0853C199.929 21.0882 199.14 19.8232 198.545 18.2755C197.949 16.7277 197.667 14.8674 197.667 12.6946V11.9951C197.667 9.91161 197.964 8.12574 198.545 6.60774C199.14 5.10463 199.944 3.85452 200.956 2.87229C201.968 1.89005 203.129 1.16082 204.408 0.699468C205.688 0.238116 207.028 0 208.412 0C209.796 0 211.135 0.238116 212.415 0.699468C213.695 1.16082 214.856 1.89005 215.868 2.87229C216.88 3.85452 217.683 5.10463 218.279 6.60774C218.874 8.11086 219.157 9.91161 219.157 11.9951V12.6946C219.157 14.8674 218.859 16.7277 218.279 18.2755C217.683 19.8232 216.88 21.1031 215.868 22.0853C214.841 23.0825 213.695 23.8117 212.415 24.2879C211.135 24.7642 209.796 25.0023 208.412 25.0023ZM208.412 22.0853C209.677 22.0853 210.867 21.7728 211.969 21.1478C213.07 20.5227 213.963 19.5107 214.662 18.1267C215.347 16.7426 215.704 14.927 215.704 12.6797V11.9803C215.704 9.85209 215.362 8.12574 214.662 6.78633C213.963 5.46181 213.07 4.47957 211.969 3.85452C210.867 3.22946 209.677 2.91693 208.412 2.91693C207.147 2.91693 205.986 3.22946 204.87 3.85452C203.754 4.47957 202.861 5.46181 202.161 6.78633C201.462 8.11086 201.119 9.85209 201.119 11.9803V12.6797C201.119 14.927 201.462 16.7426 202.161 18.1267C202.861 19.5107 203.754 20.5227 204.87 21.1478C205.986 21.7728 207.162 22.0853 208.412 22.0853Z" fill="white"></path><path d="M123.062 25.0023C121.112 25.0023 119.505 24.7046 118.225 24.0945C116.945 23.4992 115.948 22.6806 115.263 21.6538C114.564 20.6269 114.103 19.4809 113.879 18.2308H117.139C117.392 19.3024 117.972 20.2102 118.88 20.9543C119.788 21.6984 121.187 22.0854 123.077 22.0854C124.967 22.0854 126.5 21.7133 127.497 20.9692C128.509 20.2251 129.015 19.3172 129.015 18.2308C129.015 17.1444 128.806 16.6087 128.39 16.058C127.973 15.5223 127.288 15.046 126.321 14.674C125.354 14.287 124.059 13.915 122.422 13.5429C120.621 13.156 119.133 12.6946 117.987 12.1589C116.826 11.6231 115.978 10.9087 115.427 10.0009C114.877 9.0931 114.594 7.90252 114.594 6.42917C114.594 4.95582 114.936 4.13729 115.621 3.18482C116.305 2.21747 117.287 1.45848 118.552 0.878067C119.817 0.297657 121.335 0.0148926 123.092 0.0148926C124.848 0.0148926 126.276 0.297657 127.422 0.878067C128.583 1.45848 129.476 2.23236 130.131 3.18482C130.771 4.15217 131.202 5.2237 131.411 6.42917H128.152C127.913 5.46182 127.422 4.62841 126.678 3.94382C125.934 3.25924 124.729 2.91694 123.092 2.91694C121.454 2.91694 120.145 3.25924 119.222 3.94382C118.314 4.62841 117.853 5.44694 117.853 6.42917C117.853 7.4114 118.329 8.63175 119.282 9.22704C120.234 9.82233 121.737 10.3432 123.821 10.8046C125.324 11.132 126.619 11.504 127.69 11.9207C128.762 12.3374 129.64 12.8286 130.324 13.3941C131.009 13.9596 131.5 14.6442 131.813 15.4181C132.125 16.2068 132.289 17.1444 132.289 18.2308C132.289 19.3172 131.932 20.6269 131.202 21.6538C130.473 22.6806 129.431 23.4992 128.062 24.0945C126.693 24.6898 125.041 25.0023 123.092 25.0023H123.062Z" fill="white"></path><path d="M157.44 19.853H161.399V5.44694H157.44V0.639954H170.149V5.44694H166.191V19.853H170.149V24.66H157.44V19.853Z" fill="white"></path></svg>